<svg width="18" height="18" viewBox="0 0 9 10" fill="none" xmlns="http://www.w3.org/2000/svg">
<path d="M3.08568 0C3.90405 0 4.6889 0.38305 5.26758 1.06488C5.84625 1.74672 6.17135 2.67148 6.17135 3.63574C6.17135 4.53628 5.89127 5.36411 5.43079 6.00177L5.55896 6.15279H5.93399L8.30759 8.94951L7.59551 9.78853L5.22191 6.99181V6.54992L5.09374 6.3989C4.53383 6.96203 3.82183 7.27142 3.08568 7.27148C2.2673 7.27148 1.48245 6.88843 0.903773 6.20659C0.325097 5.52476 0 4.6 0 3.63574C0 2.67148 0.325097 1.74672 0.903773 1.06488C1.48245 0.38305 2.2673 0 3.08568 0ZM3.08568 1.11869C1.89888 1.11869 0.949438 2.23738 0.949438 3.63574C0.949438 5.0341 1.89888 6.15279 3.08568 6.15279C4.27247 6.15279 5.22191 5.0341 5.22191 3.63574C5.22191 2.23738 4.27247 1.11869 3.08568 1.11869Z" fill="#77818A"/>
</svg>
